<?xml version="1.0" encoding="UTF-8"?>
<svg version="1.1" xmlns="http://www.w3.org/2000/svg" width="2000" height="2000">
<path d="M0 0 C660 0 1320 0 2000 0 C2000 660 2000 1320 2000 2000 C1340 2000 680 2000 0 2000 C0 1340 0 680 0 0 Z " fill="#000000" transform="translate(0,0)"/>
<path d="M0 0 C660 0 1320 0 2000 0 C2000 660 2000 1320 2000 2000 C1512.92 2000 1025.84 2000 524 2000 C527.38517257 1995.48643657 530.71801671 1991.07391399 534.28564453 1986.72705078 C552.69922129 1964.22429693 567.33736135 1938.19614375 578.10644531 1911.234375 C578.91909703 1909.20230164 579.75112032 1907.17927971 580.5859375 1905.15625 C587.39333366 1888.25773329 592.04466452 1870.13274321 594.68505859 1852.11669922 C595.02296082 1849.84568191 595.39558522 1847.58175378 595.76953125 1845.31640625 C597.43796087 1834.83581133 598.40506114 1824.38667893 599.08984375 1813.796875 C599.17933489 1812.45098834 599.26913613 1811.10512226 599.35925293 1809.75927734 C599.5758701 1806.50637307 599.78938833 1803.25329767 600 1800 C600.96648742 1799.99959982 601.93297483 1799.99919963 602.92874974 1799.99878732 C636.02159189 1799.98506213 669.11443374 1799.97067196 702.20727539 1799.95581055 C703.20730726 1799.95536154 703.20730726 1799.95536154 704.2275418 1799.95490346 C775.6693119 1799.92280813 847.11107817 1799.88633693 918.55284119 1799.84101868 C920.1399081 1799.84001305 921.72697501 1799.83900743 923.31404192 1799.83800181 C956.62761754 1799.81687987 989.94119274 1799.79514261 1023.25476749 1799.77269462 C1039.98949127 1799.76141877 1056.72421512 1799.75026115 1073.45893905 1799.73921531 C1075.98329557 1799.73754841 1078.5076521 1799.73587814 1081.03200862 1799.73420772 C1119.89961301 1799.70851802 1158.76721688 1799.68536256 1197.63482666 1799.66955566 C1198.88818391 1799.66904587 1198.88818391 1799.66904587 1200.16686151 1799.66852577 C1213.63859019 1799.66306164 1227.11031895 1799.65781036 1240.58204772 1799.65258733 C1279.38882822 1799.63753859 1318.19560515 1799.6209137 1357.00237942 1799.59387684 C1357.80055835 1799.59332151 1358.59873728 1799.59276618 1359.42110345 1799.59219403 C1376.94386878 1799.5799744 1394.46663341 1799.56694546 1411.98939757 1799.55315043 C1419.04017222 1799.54761387 1426.09094696 1799.54219379 1433.14172173 1799.53681374 C1433.91339403 1799.53622211 1434.68506633 1799.53563048 1435.48012265 1799.53502092 C1460.33565558 1799.51602245 1485.19118104 1799.50650262 1510.0467205 1799.50196405 C1535.08867336 1799.49734799 1560.13060239 1799.48341618 1585.17254184 1799.45657366 C1588.63481908 1799.45286477 1592.09709643 1799.44926247 1595.55937386 1799.44572449 C1596.23806574 1799.4450271 1596.91675762 1799.44432971 1597.61601592 1799.44361119 C1609.00559965 1799.43220059 1620.39515124 1799.43263463 1631.7847403 1799.43623071 C1641.6962281 1799.43854104 1651.60766826 1799.43001997 1661.51914105 1799.41267589 C1667.16785021 1799.40310176 1672.81645412 1799.3982521 1678.46516765 1799.40660437 C1683.60829922 1799.41411625 1688.75122385 1799.40776699 1693.89433042 1799.39055933 C1695.73927582 1799.38678045 1697.58424012 1799.38796397 1699.42917655 1799.39484399 C1728.27845082 1799.4939213 1752.42958799 1790.89101262 1773.5625 1770.875 C1789.96890016 1754.12051497 1799.17992944 1730.39757904 1799.12880117 1707.07310838 C1799.13057618 1706.07104857 1799.13235119 1705.06898877 1799.13417998 1704.03656352 C1799.1389352 1700.65711973 1799.13654328 1697.27771833 1799.13422108 1693.89827251 C1799.13617346 1691.4491346 1799.13856209 1688.999997 1799.14134905 1686.5508599 C1799.14642144 1681.19792513 1799.14836595 1675.84500255 1799.1475983 1670.49206641 C1799.14646337 1662.47834835 1799.15104242 1654.46464054 1799.15672914 1646.45092479 C1799.16624396 1632.79389725 1799.17094874 1619.13687176 1799.17303848 1605.47984123 C1799.17516622 1591.63531593 1799.17942427 1577.79079379 1799.1862812 1563.94626999 C1799.18671182 1563.0725409 1799.18714243 1562.19881181 1799.1875861 1561.29860608 C1799.18934443 1557.74014884 1799.19111407 1554.18169161 1799.19289912 1550.62323439 C1799.21450384 1507.47056613 1799.22537864 1464.31789724 1799.23437535 1421.16522481 C1799.23730895 1407.17243177 1799.24067879 1393.17963888 1799.24434257 1379.18684602 C1799.24460086 1378.19981088 1799.24485915 1377.21277575 1799.24512527 1376.19583046 C1799.24617148 1372.20268785 1799.24721991 1368.20954525 1799.24827109 1364.21640264 C1799.26623632 1295.9113601 1799.28161557 1227.60631731 1799.28903012 1159.30127274 C1799.28961409 1153.93544691 1799.29021136 1148.56962109 1799.29080774 1143.20379527 C1799.29092586 1142.13938139 1799.29104398 1141.0749675 1799.29116567 1139.97829865 C1799.29236307 1129.19421686 1799.29357183 1118.41013507 1799.29479821 1107.62605329 C1799.29504344 1105.46380646 1799.2952873 1103.30155964 1799.29552978 1101.13931282 C1799.30331945 1031.69638592 1799.3257024 962.25347593 1799.3582062 892.81055642 C1799.38155145 842.91767474 1799.40310341 793.02479642 1799.41021252 743.13190937 C1799.41035954 742.10585739 1799.41050656 741.07980542 1799.41065803 740.02266095 C1799.41384285 717.49822756 1799.41589375 694.9737942 1799.41688558 672.44936061 C1799.41730032 663.38639433 1799.41785522 654.32342807 1799.41844749 645.26046181 C1799.41850816 644.26857469 1799.41856883 643.27668758 1799.41863134 642.25474328 C1799.42064741 610.30272673 1799.43488643 578.35073013 1799.4553925 546.39872054 C1799.47597465 514.21402001 1799.48386692 482.02934253 1799.47431473 449.84463608 C1799.47299629 445.39613798 1799.47181824 440.94763985 1799.47072411 436.49914169 C1799.47050426 435.62712128 1799.47028441 434.75510087 1799.4700579 433.85665559 C1799.46694483 420.05463859 1799.47726522 406.25266572 1799.49319966 392.45065895 C1799.50859316 378.87546668 1799.50969504 365.30033539 1799.49565142 351.72514099 C1799.48784827 343.76903484 1799.49093452 335.81311512 1799.51028858 327.85702765 C1799.52344244 321.94495877 1799.51564262 316.03303632 1799.49980123 310.12097004 C1799.49665699 307.74807433 1799.50018476 305.37515773 1799.51129298 303.00228594 C1799.63914637 273.78252705 1792.5754559 249.53935113 1772 228 C1771.45988281 227.38511719 1770.91976563 226.77023438 1770.36328125 226.13671875 C1757.0672338 211.56800177 1735.12438407 203.24415264 1716 201 C1712.65763548 200.86206532 1709.31940644 200.86454888 1705.974558 200.8723495 C1704.97399782 200.87069872 1703.97343764 200.86904794 1702.94255746 200.86734714 C1699.57425553 200.86301737 1696.20599722 200.86582499 1692.83769417 200.86857224 C1690.39421252 200.86692283 1687.95073113 200.86483666 1685.50725019 200.86235213 C1680.16983032 200.85794157 1674.83242306 200.85665355 1669.49500252 200.85808048 C1661.50452749 200.86020097 1653.51406207 200.85658916 1645.52358852 200.8518657 C1631.90577131 200.84398992 1618.28795672 200.84090354 1604.67013741 200.84041977 C1590.86634633 200.83991758 1577.06255819 200.8372727 1563.25876808 200.83201218 C1562.38745006 200.83168204 1561.51613204 200.83135191 1560.61841045 200.83101177 C1557.06974603 200.82966179 1553.52108162 200.82829913 1549.97241721 200.82691967 C1507.94511257 200.81061157 1465.91780849 200.80423033 1423.89050122 200.7994718 C1402.96507685 200.79708912 1382.0396528 200.79338575 1361.11422867 200.7894347 C1294.00094182 200.77676969 1226.88765498 200.76598588 1159.77436695 200.76259424 C1156.56626648 200.762432 1153.35816601 200.76226644 1150.15006554 200.76209986 C1143.71610781 200.76176606 1137.28215007 200.76143558 1130.84819233 200.7611053 C1123.31549919 200.7607184 1115.78280604 200.76032879 1108.25011289 200.75993423 C1106.09419019 200.75982182 1103.93826749 200.7597104 1101.78234479 200.75959998 C1032.54019039 200.75605047 963.29804637 200.74097207 894.05589593 200.71766224 C844.30540631 200.70092091 794.55491866 200.68544567 744.80442619 200.68092728 C743.26974451 200.68078705 743.26974451 200.68078705 741.70405915 200.68064399 C719.24400246 200.67862494 696.78394581 200.67746889 674.32388904 200.6771154 C666.28717338 200.67697923 658.25045773 200.67677023 650.21374209 200.67652215 C648.21438968 200.67646059 646.21503728 200.67640227 644.21568488 200.6763472 C612.35578085 200.67542735 580.49588765 200.66545873 548.63598718 200.65088971 C516.5446581 200.63627359 484.45334231 200.63123197 452.36201049 200.63930925 C447.92642119 200.64042462 443.49083188 200.64143528 439.05524254 200.64238358 C438.18575343 200.64257354 437.31626433 200.64276351 436.42042707 200.64295924 C422.65863777 200.64569178 408.89687307 200.63835445 395.13508912 200.62681021 C381.59941303 200.61566547 368.06377166 200.61524212 354.52809503 200.62618039 C346.59524941 200.6322708 338.66250866 200.6301982 330.72967296 200.61592842 C324.83481061 200.60624567 318.94003133 200.61227733 313.04517111 200.62433875 C310.67924064 200.62676995 308.31329823 200.62419863 305.94738092 200.61594227 C275.26408785 200.5159246 250.51536738 206.17553739 228 228 C227.38898438 228.53753906 226.77796875 229.07507813 226.1484375 229.62890625 C211.06978738 243.36493684 201.76806117 266.83803373 200.62797239 286.90232909 C200.43924582 292.39428093 200.46597271 297.88492647 200.49219131 303.37926579 C200.48751582 305.5052872 200.48109024 307.63130535 200.47308904 309.75731686 C200.45620395 315.5811124 200.46402674 321.40464815 200.47599602 327.22844609 C200.48460193 333.57101762 200.46995378 339.91354318 200.458287 346.25610393 C200.44103845 357.3658 200.43842744 368.4754211 200.44580269 379.58512688 C200.45363465 391.49963917 200.4527047 403.41410347 200.44116783 415.32861328 C200.44008077 416.45926034 200.44008077 416.45926034 200.43897174 417.61274875 C200.43523601 421.45649612 200.43135852 425.30024333 200.42743097 429.1439905 C200.39932458 456.93412157 200.3904701 484.72423187 200.39188385 512.51437569 C200.39322691 540.0288236 200.38629459 567.54324924 200.36830902 595.05769157 C200.36775386 595.91272308 200.3671987 596.76775459 200.36662672 597.64869615 C200.36155168 605.45828779 200.35637492 613.26787936 200.35107614 621.07747085 C200.33790621 640.48975914 200.32601168 659.9020481 200.31498337 679.31433773 C200.31448018 680.19825313 200.313977 681.08216853 200.31345856 681.99286924 C200.28910304 724.97237592 200.27944347 767.95188423 200.27099609 810.93139648 C200.26805711 825.8430583 200.26505309 840.75472009 200.26177979 855.66638184 C200.26157683 856.5912261 200.26137388 857.51607036 200.26116478 858.4689402 C200.25163793 901.47646866 200.23165964 944.48399041 200.20899166 987.49151371 C200.20751991 990.284185 200.20605267 993.07685629 200.20458635 995.86952758 C200.1948616 1014.37697304 200.18495685 1032.8844184 200.17493158 1051.39186369 C200.15498601 1088.21592093 200.13609793 1125.03997869 200.11793654 1161.86403685 C200.11707168 1163.61762646 200.11620607 1165.37121606 200.11533972 1167.12480567 C200.07635338 1246.05007903 200.04966781 1324.97535482 200.02832031 1403.90063477 C200.02812038 1404.63953586 200.02792044 1405.37843695 200.02771445 1406.13972899 C200.01772496 1443.09315248 200.00843783 1480.04657613 200 1517 C199.19116867 1517.33610291 198.38233734 1517.67220581 197.54899597 1518.01849365 C196.47990494 1518.46324036 195.4108139 1518.90798706 194.30932617 1519.36621094 C193.25299484 1519.80543884 192.19666351 1520.24466675 191.10832214 1520.69720459 C156.64205025 1535.14310136 125.21831949 1553.93209424 97.765625 1579.45703125 C95.57212607 1581.47393493 93.34943886 1583.40511612 91.0625 1585.3125 C80.94002799 1594.13291129 72.39698802 1604.66192183 64.29541016 1615.31494141 C63.04542843 1616.94090709 61.76914989 1618.54132848 60.48046875 1620.13671875 C53.4724104 1628.9326597 47.67321312 1638.30056716 42 1648 C41.39841064 1649.0194873 41.39841064 1649.0194873 40.78466797 1650.05957031 C17.70888429 1689.31648471 3.41201288 1734.42127386 1 1780 C0.67 1780 0.34 1780 0 1780 C0 1192.6 0 605.2 0 0 Z " fill="#FEFEFE" transform="translate(0,0)"/>
<path d="M0 0 C0.82682281 -0.00100708 1.65364563 -0.00201416 2.50552368 -0.00305176 C23.90277102 0.01442566 45.04076303 1.69357309 65.88525391 6.74707031 C67.99427902 7.24863943 70.1087382 7.70397787 72.23046875 8.1484375 C113.02278979 16.87444704 152.14935623 36.91830467 185 62.25 C185.84304688 62.89710937 186.68609375 63.54421875 187.5546875 64.2109375 C193.3688701 68.761975 198.80257022 73.65019267 204.203125 78.67578125 C206.38610912 80.68498032 208.59514556 82.60499278 210.875 84.5 C221.37066981 93.64279761 230.33748568 104.51898957 238.72070312 115.58105469 C239.96278854 117.20145466 241.23268297 118.79464635 242.515625 120.3828125 C249.52671905 129.17975126 255.33998462 138.53920941 261 148.25 C261.42812988 148.97848145 261.85625977 149.70696289 262.29736328 150.45751953 C288.44405059 195.19561821 302.25609989 245.85367915 302.1875 297.625 C302.18659363 298.88839203 302.18659363 298.88839203 302.18566895 300.17730713 C302.16016032 313.29216368 301.81976613 326.24294677 300 339.25 C299.86577637 340.21502441 299.73155273 341.18004883 299.59326172 342.17431641 C297.63300619 355.79624711 294.86806891 369.04562791 291 382.25 C290.80825195 382.91870117 290.61650391 383.58740234 290.41894531 384.27636719 C278.60630578 425.20380847 258.18854464 461.60390078 231 494.25 C230.31232365 495.27778553 229.6246473 496.30557105 228.91613227 497.3645016 C226.76306361 499.92154811 225.34775739 500.69248303 222.01910418 500.99519098 C220.41340517 501.02359124 218.80691759 501.01886974 217.20125866 500.98828697 C216.31078163 500.99521004 215.42030459 501.0021331 214.50284341 501.00926596 C211.50311271 501.02521503 208.50529399 500.99817988 205.50566101 500.9715271 C203.33994573 500.97414236 201.17423229 500.97939364 199.00852901 500.9870621 C193.04515927 501.00051301 187.08243299 500.97643109 181.11914527 500.94639373 C174.69313345 500.92054033 168.26715941 500.92924713 161.84111023 500.93380737 C150.70354631 500.93695713 139.56619621 500.91830315 128.42868614 500.88438034 C116.74652803 500.84888976 105.06445384 500.82578704 93.3822422 500.81926346 C92.65614019 500.81885102 91.93003817 500.81843858 91.18193307 500.81801365 C87.4944944 500.81598367 83.80705566 500.81417536 80.11961684 500.81245239 C53.99497061 500.79984671 27.87043405 500.75941365 1.74584961 500.70263672 C-23.63532935 500.64753906 -49.0164783 500.60503303 -74.39770508 500.57958984 C-75.17993275 500.57880069 -75.96216041 500.57801153 -76.76809195 500.57719846 C-84.62347519 500.5692874 -92.47885866 500.56163251 -100.33424233 500.5541653 C-116.33685876 500.53894763 -132.33947322 500.52202012 -148.34208679 500.50405884 C-149.44577141 500.50282323 -149.44577141 500.50282323 -150.57175269 500.50156266 C-199.71454842 500.44634974 -248.85727966 500.35115279 -298 500.25 C-298.04683053 471.89371406 -298.08204285 443.53743396 -298.10362434 415.18111706 C-298.1139137 402.01322826 -298.12792906 388.84536356 -298.15087891 375.67749023 C-298.17088468 364.19330383 -298.18373342 352.70913489 -298.18817699 341.22493154 C-298.19077224 335.15059038 -298.19682291 329.07629917 -298.21146011 323.00197411 C-298.22515786 317.27041886 -298.2291983 311.53893357 -298.22621536 305.80736351 C-298.22676012 303.71740334 -298.23066423 301.62744054 -298.23841095 299.53749466 C-298.48953449 228.21648101 -272.64715751 160.72033013 -227 106.25 C-226.5369043 105.69521973 -226.07380859 105.14043945 -225.59667969 104.56884766 C-217.43158329 94.81115324 -208.99320016 85.47677225 -199.2890625 77.203125 C-197.51714088 75.69124649 -195.76586614 74.15515159 -194.0234375 72.609375 C-180.97286108 61.09325563 -166.97866144 50.9357514 -151.85644531 42.31054688 C-149.95644592 41.2251185 -148.06801161 40.12121913 -146.1796875 39.015625 C-101.63631345 13.16630251 -51.40594991 0.04380182 0 0 Z " fill="#178D46" transform="translate(298,1499.75)"/>
<path d="M0 0 C1.04840492 0.00376332 1.04840492 0.00376332 2.11798974 0.00760266 C2.85813849 0.00632457 3.59828725 0.00504649 4.36086476 0.00372967 C6.87770491 0.00063113 9.39448405 0.00475154 11.91132225 0.00875333 C13.72706333 0.00801463 15.54280428 0.00683705 17.35854482 0.00525683 C22.39536191 0.0021665 27.43215906 0.00538045 32.46897469 0.00953496 C37.93070145 0.01295115 43.39242607 0.01060182 48.85415323 0.00895747 C58.44211643 0.00687742 68.03007345 0.00853822 77.61803593 0.01259568 C91.87515289 0.01861236 106.13226592 0.0189332 120.38938392 0.01805369 C144.36811845 0.01664452 168.34685035 0.02008282 192.32558407 0.0260711 C216.07969772 0.03198913 239.83381024 0.0358453 263.58792462 0.03692391 C264.32503674 0.03695832 265.06214886 0.03699274 265.82159771 0.03702819 C272.5537639 0.03734138 279.28593009 0.03762907 286.01809628 0.03788616 C302.75515345 0.03852564 319.49221059 0.03948502 336.22926773 0.04066136 C336.99152242 0.04071468 337.75377711 0.040768 338.53913043 0.04082293 C375.63831248 0.04344584 412.73749379 0.04975397 449.8366753 0.0563617 C462.71446257 0.05865332 475.59224984 0.06092866 488.47003712 0.0631366 C489.26869485 0.06327355 490.06735258 0.0634105 490.89021207 0.0635516 C528.00252664 0.0698931 565.11484135 0.07362044 602.22715633 0.0766714 C604.63586418 0.07686946 607.04457203 0.07706866 609.45327988 0.07726808 C625.41561778 0.07858783 641.37795568 0.07986249 657.34029358 0.08110694 C689.10267151 0.08358358 720.86504942 0.08632527 752.62742732 0.08924898 C754.14010976 0.08938822 755.65279221 0.08952728 757.16547466 0.08966615 C835.33020803 0.09684366 913.49494066 0.1082479 991.65967335 0.12069276 C993.29364395 0.12095286 993.29364395 0.12095286 994.96062407 0.12121822 C1016.36421343 0.124633 1037.76780276 0.12823496 1059.1713921 0.13180115 C1059.1713921 42.04180115 1059.1713921 83.95180115 1059.1713921 127.13180115 C988.2213921 127.13180115 917.2713921 127.13180115 844.1713921 127.13180115 C844.1713921 307.31180115 844.1713921 487.49180115 844.1713921 673.13180115 C792.6913921 673.13180115 741.2113921 673.13180115 688.1713921 673.13180115 C688.1713921 494.27180115 688.1713921 315.41180115 688.1713921 131.13180115 C440.3413921 131.13180115 192.5113921 131.13180115 -62.8286079 131.13180115 C-60.91182734 125.38145948 -59.01446323 119.98942741 -56.52001415 114.52242615 C-56.20161068 113.81475098 -55.8832072 113.10707581 -55.55515514 112.37795594 C-54.8658883 110.84721653 -54.17467146 109.31735395 -53.48168407 107.7882953 C-51.96903591 104.45044596 -50.46609736 101.10825141 -48.96248851 97.76632264 C-48.16008591 95.98306883 -47.35720037 94.20003226 -46.55385814 92.41720155 C-42.36439875 83.1157283 -38.22406362 73.79261956 -34.08703075 64.46773865 C-30.33862837 56.02047081 -26.5834535 47.57620651 -22.8286079 39.13180115 C-22.41193859 38.19473328 -21.99526928 37.25766541 -21.56597362 36.29220155 C-19.13802926 30.83311288 -16.7073022 25.37527737 -14.2726997 19.91915467 C-13.52253263 18.23706486 -12.77317422 16.55461416 -12.02465282 14.87179139 C-10.99923548 12.56686074 -9.9709608 10.26322709 -8.94188915 7.95992615 C-8.63874294 7.27686402 -8.33559673 6.59380189 -8.02326427 5.8900409 C-5.39368647 0.02018851 -5.39368647 0.02018851 0 0 Z " fill="#FEFEFE" transform="translate(483.82860789843835,894.8681988453027)"/>
<path d="M0 0 C50.82 0 101.64 0 154 0 C158.67600814 9.35201629 163.26493742 18.56873205 167.4375 28.125 C168.47726186 30.48464068 169.51766386 32.84399935 170.55859375 35.203125 C170.83182465 35.82351654 171.10505554 36.44390808 171.38656616 37.08309937 C174.53946172 44.23772514 177.73992315 51.37097514 180.93798828 58.50549316 C187.20973966 72.49870766 193.45024866 86.50555515 199.67098999 100.52151489 C207.20643898 117.49910789 214.78696415 134.45545967 222.41943359 151.38964844 C227.48419644 162.62716504 232.53147987 173.87233564 237.5625 185.125 C237.91162445 185.90583954 238.2607489 186.68667908 238.62045288 187.49118042 C240.37760805 191.42140921 242.13443785 195.35178333 243.89111328 199.28222656 C247.07074724 206.39601512 250.25333745 213.50848112 253.43566895 220.62106323 C254.50116999 223.0026151 255.56652625 225.38423167 256.63183594 227.76586914 C259.79004574 234.82630966 262.94876285 241.88652044 266.11051941 248.94537354 C267.84491032 252.81757113 269.57883681 256.68997654 271.3125 260.5625 C271.83168503 261.72220306 271.83168503 261.72220306 272.36135864 262.90533447 C278.66643464 276.99220981 284.93300787 291.09605938 291.19241333 305.20327759 C295.85847283 315.71775938 300.54160102 326.22410989 305.26953125 336.7109375 C305.69205673 337.648237 306.11458221 338.5855365 306.5499115 339.55123901 C308.56902442 344.02830334 310.59112157 348.50399485 312.61694336 352.97802734 C313.3331894 354.56346806 314.04941767 356.1489168 314.765625 357.734375 C315.09581131 358.46119476 315.42599762 359.18801453 315.76618958 359.93685913 C318 364.88698637 318 364.88698637 318 366 C159.27 366 0.54 366 -163 366 C-151.63312442 339.85618617 -151.63312442 339.85618617 -146.12390137 327.59786987 C-144.31646599 323.5757574 -142.51378453 319.55151449 -140.7109375 315.52734375 C-140.14264221 314.25906487 -140.14264221 314.25906487 -139.56286621 312.96516418 C-134.93576283 302.63275799 -130.34390753 292.28469573 -125.75 281.9375 C-119.85837823 268.66908777 -113.95134296 255.40815549 -108.00195312 242.16552734 C-103.05510753 231.14429221 -98.15276896 220.10339577 -93.25 209.0625 C-86.68025628 194.26764405 -80.09141892 179.48162938 -73.47338867 164.70831299 C-67.10386197 150.48784264 -60.77344679 136.25015881 -54.44970703 122.00927734 C-48.9938563 109.72380052 -43.5198031 97.44702733 -38.01074219 85.18530273 C-32.16620693 72.16464796 -26.37980641 59.11812356 -20.59179688 46.07226562 C-13.76641785 30.69714293 -6.88131614 15.35062832 0 0 Z " fill="#168D45" transform="translate(643,529)"/>
<path d="M0 0 C197.34 0 394.68 0 598 0 C612.90466486 33.24886775 612.90466486 33.24886775 619.25 47.4375 C619.96548222 49.037115 620.68097742 50.63672419 621.39648438 52.23632812 C622.86788753 55.525857 624.33923755 58.81540963 625.81054688 62.10498047 C627.96200056 66.915146 630.11375879 71.72517525 632.265625 76.53515625 C632.61544434 77.31709351 632.96526367 78.09903076 633.32568359 78.90466309 C634.38378369 81.26977779 635.4418905 83.6348895 636.5 86 C644.44677012 103.76280186 644.44677012 103.76280186 648.28990173 112.35545349 C649.02272712 113.99387498 649.75560661 115.63227226 650.48854065 117.27064514 C652.28299128 121.28195416 654.07674989 125.29356922 655.86889648 129.3059082 C658.89459916 136.07754645 661.92489585 142.84678217 664.99142456 149.60005188 C666.22857033 152.32456036 667.46213154 155.0506857 668.69567871 157.77682495 C669.5407847 159.63963445 670.39187232 161.49963044 671.24316406 163.35961914 C671.74170898 164.46168701 672.24025391 165.56375488 672.75390625 166.69921875 C673.19033447 167.65658936 673.6267627 168.61395996 674.07641602 169.6003418 C675 172 675 172 675 175 C621.21 175 567.42 175 512 175 C494.9360344 134.04648255 494.9360344 134.04648255 488.71890259 118.96572876 C486.7477812 114.18483143 484.77416877 109.40496229 482.80078125 104.625 C482.40253647 103.66028275 482.00429169 102.69556549 481.59397888 101.70161438 C477.70080691 92.27223642 473.79997157 82.84604181 469.89398193 73.42196655 C469.18972316 71.72268739 468.48565265 70.02333019 467.78179932 68.32388306 C467.45177917 67.52711151 467.12175903 66.73033997 466.78173828 65.90942383 C466.49718781 65.22229813 466.21263733 64.53517242 465.91946411 63.82722473 C461.64830386 53.53576984 457.32420211 43.26998002 453 33 C349.71 32.67 246.42 32.34 140 32 C139.01 35.3 138.02 38.6 137 42 C135.9976906 44.58821735 134.97575888 47.12834289 133.875 49.671875 C133.57619431 50.37503845 133.27738861 51.0782019 132.9695282 51.80267334 C132.32321957 53.32259051 131.67465066 54.84154822 131.02401733 56.35961914 C129.21894603 60.57322739 127.43291866 64.79491515 125.64453125 69.015625 C125.26633743 69.90709229 124.88814362 70.79855957 124.49848938 71.71704102 C120.16241264 81.9508414 115.92195429 92.22382782 111.6875 102.5 C111.1028598 103.91856293 111.1028598 103.91856293 110.50640869 105.36578369 C108.91099947 109.23706367 107.31559992 113.1083475 105.7208252 116.97988892 C102.69318145 124.32702872 99.65121029 131.66815948 96.60546875 139.0078125 C95.28808946 142.18554122 93.9709697 145.36337736 92.65396118 148.54125977 C91.80642197 150.58478603 90.9579429 152.62792278 90.10848999 154.6706543 C88.93178229 157.50075142 87.75849428 160.33224358 86.5859375 163.1640625 C86.23585129 164.00349396 85.88576508 164.84292542 85.52507019 165.70779419 C85.2053273 166.48178558 84.88558441 167.25577698 84.55615234 168.05322266 C84.27814789 168.72277985 84.00014343 169.39233704 83.7137146 170.08218384 C82.84304105 172.31316258 82.84304105 172.31316258 82 176 C29.2 176 -23.6 176 -78 176 C-77.05179725 171.25898624 -75.52377572 167.37074195 -73.52734375 163.02734375 C-72.99593025 161.85418106 -72.99593025 161.85418106 -72.45378113 160.65731812 C-71.68769713 158.96750899 -70.91926466 157.278763 -70.14874268 155.5909729 C-68.49762882 151.9738729 -66.85814171 148.35154251 -65.21795654 144.72947693 C-64.37351805 142.86492903 -63.52850142 141.00064286 -62.68292236 139.13661194 C-58.7878595 130.54727806 -54.94782196 121.93417576 -51.125 113.3125 C-50.47637711 111.85112952 -49.82769483 110.3897854 -49.17895508 108.9284668 C-47.4831799 105.10799969 -45.7883496 101.28711415 -44.09375 97.46612549 C-34.17548895 75.1029928 -24.25593606 52.74038677 -14.23455811 30.42321777 C-13.46421283 28.70730104 -12.69453928 26.99108255 -11.92559814 25.27453613 C-10.86012945 22.89688222 -9.7918089 20.52053048 -8.72265625 18.14453125 C-8.41827133 17.46415298 -8.11388641 16.78377472 -7.80027771 16.08277893 C-5.3422685 10.63451426 -2.68008451 5.36016902 0 0 Z " fill="#168D45" transform="translate(422,1026)"/>
<path d="M0 0 C2.01341047 2.01341047 2.6448803 3.21569738 3.70141602 5.79907227 C4.0274733 6.58919205 4.35353058 7.37931183 4.68946838 8.19337463 C5.04073288 9.05897507 5.39199738 9.9245755 5.75390625 10.81640625 C6.12631943 11.7224913 6.4987326 12.62857635 6.88243103 13.56211853 C8.11366777 16.56040286 9.33798344 19.56146559 10.5625 22.5625 C11.42392024 24.66298972 12.2859063 26.76324748 13.1484375 28.86328125 C14.91598749 33.16741146 16.68151245 37.47236392 18.44580078 41.77783203 C21.76469533 49.8704854 25.11663499 57.94932356 28.4725647 66.02667236 C30.21513148 70.22152393 31.95533432 74.41735542 33.6953125 78.61328125 C34.04465347 79.45570374 34.39399445 80.29812622 34.75392151 81.16607666 C41.37415157 97.13503577 47.9655048 113.11595782 54.56201172 129.09472656 C57.45750656 136.10839766 60.35359537 143.12182345 63.25041199 150.13494873 C65.27623487 155.03943338 67.30142389 159.94417709 69.32495117 164.84960938 C72.81845527 173.31620319 76.31990597 181.77906906 79.859375 190.2265625 C80.7065545 192.25354947 81.55340849 194.28067213 82.400177 196.30783081 C83.16319221 198.12946715 83.93196665 199.94868785 84.70092773 201.76782227 C85.14380127 202.82799561 85.5866748 203.88816895 86.04296875 204.98046875 C86.42477295 205.88692139 86.80657715 206.79337402 87.19995117 207.72729492 C88 210 88 210 88 213 C29.92 213 -28.16 213 -88 213 C-81.11442642 194.63847045 -81.11442642 194.63847045 -78.07421875 187.47265625 C-77.72970673 186.65310455 -77.3851947 185.83355286 -77.03024292 184.98916626 C-76.2976057 183.24705773 -75.56364223 181.50550641 -74.82839966 179.76449585 C-72.82956518 175.03065058 -70.84156836 170.29224914 -68.8515625 165.5546875 C-68.44452591 164.58647568 -68.03748932 163.61826385 -67.61811829 162.62071228 C-63.57019792 152.98846367 -59.56077393 143.34044366 -55.5625 133.6875 C-55.21786713 132.85574249 -54.87323425 132.02398499 -54.51815796 131.16702271 C-48.8348241 117.44906895 -43.16719229 103.72462797 -37.5 90 C-10.77646968 25.28257205 -10.77646968 25.28257205 0 0 Z " fill="#000000" transform="translate(719,682)"/>
<path d="M0 0 C0.33 0 0.66 0 1 0 C1.09796875 1.14210938 1.1959375 2.28421875 1.296875 3.4609375 C3.1798362 24.31784914 6.02104685 44.89658365 12 65 C12.19174805 65.66580078 12.38349609 66.33160156 12.58105469 67.01757812 C24.03542143 106.72342086 43.38817466 144.23583622 70.7578125 175.30078125 C73 178 73 178 76 183 C50.92 183 25.84 183 0 183 C0 122.61 0 62.22 0 0 Z " fill="#FDFEFD" transform="translate(0,1817)"/>
</svg>
